<svg width="524" height="531" viewBox="0 0 524 531" fill="none" xmlns="http://www.w3.org/2000/svg">
<mask id="mask0_95_12" style="mask-type:luminance" maskUnits="userSpaceOnUse" x="12" y="8" width="508" height="518">
<path d="M76.3 314.2C74.8 311.6 51.2 241.3 43.5 207.7C39.2 188.7 35.8 169.6 34.4 150.2C33.3 135.7 33.2 121.2 36.1 106.9C37.8 98.5001 40.4 90.4001 45.5 83.3001C53.4 72.4001 64.3 69.3001 77.1 71.4001C93.3 74.1001 107 82.3 120.1 91.7001C136.7 103.6 151.3 117.9 165.1 133C186.2 156.2 204.3 181.7 220.4 208.5C230.2 224.9 239.4 241.6 248.8 258.2C249.2 258.9 249.5 259.6 249.9 260.6M247.6 442.3C244.6 442.9 170.5 443.8 136.2 440.8C116.8 439.1 97.6 436.4 78.7 431.8C64.6 428.4 50.8 424 38 416.8C30.5 412.6 23.6 407.7 18.5 400.6C10.6 389.7 10.9 378.4 16.9 366.9C24.4 352.3 36.5 341.7 49.4 332.2C65.9 320 83.9 310.5 102.5 302.1C131.1 289.1 160.9 279.7 191.4 272.6C210 268.3 228.7 264.7 247.4 260.8C248.2 260.6 248.9 260.6 250 260.5M421.9 319.1C421.6 322.1 399.5 392.9 385.9 424.6C378.3 442.5 369.8 460 359.5 476.5C351.9 488.8 343.4 500.7 332.7 510.5C326.4 516.3 319.6 521.4 311.3 524.1C298.5 528.2 287.8 524.4 278.8 515.2C267.2 503.5 261 488.8 255.9 473.5C249.4 454.1 246 434 243.7 413.7C240.2 382.5 240.5 351.3 243.3 320.1C245 301.1 247.4 282.2 249.5 263.2C249.6 262.4 249.8 261.7 250 260.6M358.5 115C361.3 116.2 421.8 159.1 447.8 181.8C462.5 194.6 476.5 208 489 222.9C498.4 234 507 245.6 513.1 258.9C516.7 266.7 519.4 274.7 519.4 283.5C519.4 296.9 512.4 305.9 500.9 311.7C486.2 319.1 470.3 320.5 454.2 320.6C433.7 320.8 413.6 317.8 393.6 313.7C362.9 307.4 333.2 297.5 304.4 285.3C278.3 274.2 261.6 266.1 252.2 261.9C251.5 261.6 250.8 261.2 249.9 260.7M144.8 112.4C146.8 110.1 206.2 65.8001 235.8 48.0001C252.5 38.0001 269.6 28.8001 287.6 21.4001C301 15.9001 314.8 11.2001 329.3 9.50005C337.8 8.50005 346.3 8.40005 354.6 11.1001C367.4 15.2001 373.8 24.6001 375.7 37.4001C378.2 53.7001 374.7 69.3001 369.8 84.6001C363.6 104.1 354.7 122.4 344.6 140.2C329.1 167.5 310.6 192.6 290.1 216.3C277.6 230.7 264.5 244.6 251.7 258.8C251.2 259.4 250.6 259.9 249.8 260.6" fill="white"/>
</mask>
<g mask="url(#mask0_95_12)">
<path d="M531.9 0H-4.39999V536.3H531.9V0Z" fill="white"/>
</g>
<path d="M76.3 314.2C74.8 311.6 51.2 241.3 43.5 207.7C39.2 188.7 35.8 169.6 34.4 150.2C33.3 135.7 33.2 121.2 36.1 106.9C37.8 98.5001 40.4 90.4001 45.5 83.3001C53.4 72.4001 64.3 69.3001 77.1 71.4001C93.3 74.1001 107 82.3001 120.1 91.7001C136.7 103.6 151.3 117.9 165.1 133C186.2 156.2 204.3 181.7 220.4 208.5C230.2 224.9 239.4 241.6 248.8 258.2C249.2 258.9 249.5 259.6 249.9 260.6M247.6 442.3C244.6 442.9 170.5 443.8 136.2 440.8C116.8 439.1 97.6 436.4 78.7 431.8C64.6 428.4 50.8 424 38 416.8C30.5 412.6 23.6 407.7 18.5 400.6C10.6 389.7 10.9 378.4 16.9 366.9C24.4 352.3 36.5 341.7 49.4 332.2C65.9 320 83.9 310.5 102.5 302.1C131.1 289.1 160.9 279.7 191.4 272.6C210 268.3 228.7 264.7 247.4 260.8C248.2 260.6 248.9 260.6 250 260.5M421.9 319.1C421.6 322.1 399.5 392.9 385.9 424.6C378.3 442.5 369.8 460 359.5 476.5C351.9 488.8 343.4 500.7 332.7 510.5C326.4 516.3 319.6 521.4 311.3 524.1C298.5 528.2 287.8 524.4 278.8 515.2C267.2 503.5 261 488.8 255.9 473.5C249.4 454.1 246 434 243.7 413.7C240.2 382.5 240.5 351.3 243.3 320.1C245 301.1 247.4 282.2 249.5 263.2C249.6 262.4 249.8 261.7 250 260.6M358.5 115C361.3 116.2 421.8 159.1 447.8 181.8C462.5 194.6 476.5 208 489 222.9C498.4 234 507 245.6 513.1 258.9C516.7 266.7 519.4 274.7 519.4 283.5C519.4 296.9 512.4 305.9 500.9 311.7C486.2 319.1 470.3 320.5 454.2 320.6C433.7 320.8 413.6 317.8 393.6 313.7C362.9 307.4 333.2 297.5 304.4 285.3C278.3 274.2 261.6 266.1 252.2 261.9C251.5 261.6 250.8 261.2 249.9 260.7M144.8 112.4C146.8 110.1 206.2 65.8001 235.8 48.0001C252.5 38.0001 269.6 28.8001 287.6 21.4001C301 15.9001 314.8 11.2001 329.3 9.50005C337.8 8.50005 346.3 8.40005 354.6 11.1001C367.4 15.2001 373.8 24.6001 375.7 37.4001C378.2 53.7001 374.7 69.3001 369.8 84.6001C363.6 104.1 354.7 122.4 344.6 140.2C329.1 167.5 310.6 192.6 290.1 216.3C277.6 230.7 264.5 244.6 251.7 258.8C251.2 259.4 250.6 259.9 249.8 260.6" stroke="#D2233C" stroke-width="6" stroke-miterlimit="10"/>
<path d="M74.5195 191.608C72.9145 191.608 71.6395 190.798 71.0845 189.958L71.7895 189.103C72.4645 189.898 73.5895 190.408 74.4445 190.408C75.8095 190.408 76.8295 189.703 76.8295 188.398C76.8295 187.363 76.0795 186.688 74.7745 186.688H73.5595V185.488H74.6845C75.5695 185.488 76.4245 184.768 76.4245 183.718C76.4245 182.578 75.5995 182.008 74.5195 182.008C73.4845 182.008 72.7645 182.428 72.1345 183.178L71.3845 182.338C72.0895 181.423 73.2895 180.808 74.6545 180.808C76.4695 180.808 77.6995 181.813 77.6995 183.598C77.6995 184.483 77.2045 185.473 76.1845 185.998V186.043C77.4595 186.283 78.1045 187.318 78.1045 188.518C78.1045 190.453 76.4395 191.608 74.5195 191.608ZM80.5964 186.133L80.2814 185.173C80.8814 184.798 81.6914 184.558 82.5314 184.558C84.4514 184.558 85.1264 185.563 85.1264 187.318V191.458H83.9864V190.588C83.5814 191.098 82.9364 191.563 81.8264 191.563C80.5964 191.563 79.7564 190.783 79.7564 189.478C79.7564 188.098 80.8514 187.333 82.3064 187.333C82.8314 187.333 83.5364 187.438 83.9864 187.768C83.9864 186.508 83.7914 185.638 82.4564 185.638C81.6314 185.638 81.1364 185.848 80.5964 186.133ZM82.2464 190.483C83.1314 190.483 83.6414 190.018 83.9864 189.613V188.758C83.5664 188.458 83.0564 188.308 82.4714 188.308C81.7514 188.308 81.0314 188.638 81.0314 189.418C81.0314 190.063 81.4664 190.483 82.2464 190.483ZM92.3558 180.808L93.0008 181.753C92.1758 182.863 91.0508 182.428 89.5658 183.103C88.3058 183.673 87.9458 185.098 87.8558 186.358H87.8858C88.3208 185.413 89.4158 184.783 90.5558 184.783C92.4908 184.783 93.6908 186.118 93.6908 188.143C93.6908 190.033 92.2808 191.608 90.2258 191.608C88.0358 191.608 86.6558 190.003 86.6558 187.408C86.6558 185.413 87.0158 182.863 89.1608 181.963C90.7358 181.288 91.6658 181.708 92.3558 180.808ZM87.9308 187.633C87.9308 189.373 88.8608 190.483 90.1958 190.483C91.5158 190.483 92.4158 189.463 92.4158 188.203C92.4158 186.883 91.6508 185.908 90.2558 185.908C88.9808 185.908 88.1408 186.763 87.9308 187.633ZM94.9622 188.083C94.9622 186.058 96.4022 184.558 98.5622 184.558C100.722 184.558 102.162 186.058 102.162 188.083C102.162 190.108 100.722 191.608 98.5622 191.608C96.4022 191.608 94.9622 190.108 94.9622 188.083ZM96.2372 188.083C96.2372 189.493 97.2122 190.483 98.5622 190.483C99.9122 190.483 100.887 189.523 100.887 188.083C100.887 186.673 99.9122 185.683 98.5622 185.683C97.2422 185.683 96.2372 186.658 96.2372 188.083ZM102.775 185.908V184.708H108.925V185.908H106.45V191.458H105.25V185.908H102.775ZM110.596 186.133L110.281 185.173C110.881 184.798 111.691 184.558 112.531 184.558C114.451 184.558 115.126 185.563 115.126 187.318V191.458H113.986V190.588C113.581 191.098 112.936 191.563 111.826 191.563C110.596 191.563 109.756 190.783 109.756 189.478C109.756 188.098 110.851 187.333 112.306 187.333C112.831 187.333 113.536 187.438 113.986 187.768C113.986 186.508 113.791 185.638 112.456 185.638C111.631 185.638 111.136 185.848 110.596 186.133ZM112.246 190.483C113.131 190.483 113.641 190.018 113.986 189.613V188.758C113.566 188.458 113.056 188.308 112.471 188.308C111.751 188.308 111.031 188.638 111.031 189.418C111.031 190.063 111.466 190.483 112.246 190.483ZM120.055 188.083C120.055 186.058 121.495 184.558 123.655 184.558C125.815 184.558 127.255 186.058 127.255 188.083C127.255 190.108 125.815 191.608 123.655 191.608C121.495 191.608 120.055 190.108 120.055 188.083ZM121.33 188.083C121.33 189.493 122.305 190.483 123.655 190.483C125.005 190.483 125.98 189.523 125.98 188.083C125.98 186.673 125.005 185.683 123.655 185.683C122.335 185.683 121.33 186.658 121.33 188.083ZM136.976 191.458V185.908H134.606L134.531 187.048C134.231 190.888 133.211 191.548 131.816 191.548L131.726 190.378C132.236 190.423 133.196 189.928 133.361 186.808L133.481 184.708H138.176V191.458H136.976ZM140.339 191.458V184.708H141.614V187.408H143.084C143.354 185.743 144.644 184.558 146.489 184.558C148.604 184.558 150.014 186.058 150.014 188.083C150.014 190.108 148.574 191.608 146.489 191.608C144.584 191.608 143.279 190.363 143.069 188.608H141.614V191.458H140.339ZM144.389 188.083C144.389 189.508 145.289 190.408 146.534 190.408C147.779 190.408 148.664 189.493 148.664 188.083C148.664 186.703 147.824 185.758 146.534 185.758C145.274 185.758 144.389 186.688 144.389 188.083ZM150.542 193.108V190.333H151.382C151.832 189.763 152.297 188.338 152.417 186.493L152.522 184.708H157.127V190.333H158.252V193.108H157.127V191.458H151.667V193.108H150.542ZM153.572 186.958C153.422 188.683 152.972 189.913 152.657 190.333H155.927V185.833H153.647L153.572 186.958ZM162.513 184.708H164.613V191.458H163.413V189.208H162.108L160.458 191.458H159.003L160.953 188.908C160.263 188.743 159.498 188.068 159.498 186.958C159.498 185.803 160.263 184.708 162.513 184.708ZM160.773 186.988C160.773 187.678 161.433 188.083 162.033 188.083H163.413V185.833H162.318C161.193 185.833 160.773 186.358 160.773 186.988ZM172.794 184.708L170.379 187.963L172.944 191.458H171.474L169.494 188.728L167.484 191.458H166.089L168.639 188.023L166.239 184.708H167.709L169.539 187.258L171.399 184.708H172.794Z" fill="#0E141A"/>
<path d="M291.505 398.166V388.866H287.695L287.515 390.846C286.9 397.521 285.49 398.376 283.84 398.166L283.855 396.891C284.605 396.966 285.865 396.591 286.345 389.766L286.495 387.666H292.78V398.166H291.505ZM296.629 398.166H295.429V391.416H296.629V396.441L300.529 391.416H301.729V398.166H300.529V393.141L296.629 398.166ZM302.981 399.816V397.041H303.821C304.271 396.471 304.736 395.046 304.856 393.201L304.961 391.416H309.566V397.041H310.691V399.816H309.566V398.166H304.106V399.816H302.981ZM306.011 393.666C305.861 395.391 305.411 396.621 305.096 397.041H308.366V392.541H306.086L306.011 393.666ZM317.322 396.486L317.697 397.431C317.037 398.031 316.062 398.316 315.162 398.316C312.972 398.316 311.547 396.921 311.547 394.791C311.547 392.826 312.807 391.266 315.027 391.266C316.767 391.266 318.162 392.496 318.162 394.356C318.162 394.686 318.132 394.956 318.087 395.166H312.897C313.002 396.441 313.932 397.191 315.252 397.191C316.122 397.191 316.887 396.891 317.322 396.486ZM314.967 392.391C313.737 392.391 312.957 393.156 312.822 394.191H316.917C316.857 393.081 316.137 392.391 314.967 392.391ZM319.789 401.166V391.416H320.989V392.211C321.454 391.671 322.354 391.266 323.284 391.266C325.204 391.266 326.404 392.691 326.404 394.686C326.404 396.741 325.009 398.316 322.894 398.316C322.174 398.316 321.469 398.166 320.989 397.851V401.166H319.789ZM322.939 392.391C322.144 392.391 321.409 392.796 320.989 393.321V396.666C321.589 397.071 322.144 397.191 322.789 397.191C324.229 397.191 325.129 396.156 325.129 394.731C325.129 393.366 324.334 392.391 322.939 392.391ZM333.314 396.321L333.884 397.191C333.314 397.926 332.324 398.316 331.289 398.316C329.144 398.316 327.674 396.921 327.674 394.791C327.674 392.826 329.114 391.266 331.094 391.266C332.174 391.266 333.119 391.521 333.749 392.151L333.194 393.096C332.624 392.571 331.964 392.391 331.259 392.391C330.044 392.391 328.949 393.366 328.949 394.791C328.949 396.276 330.044 397.191 331.379 397.191C332.189 397.191 332.864 396.831 333.314 396.321ZM334.506 392.616V391.416H340.656V392.616H338.181V398.166H336.981V392.616H334.506ZM341.967 398.166V391.416C342.552 391.416 343.437 391.356 344.412 391.356C346.302 391.356 347.322 391.881 347.322 393.096C347.322 393.891 346.782 394.521 345.972 394.641V394.671C347.052 394.866 347.547 395.421 347.547 396.261C347.547 397.536 346.542 398.226 344.442 398.226C343.602 398.226 342.582 398.166 341.967 398.166ZM344.607 395.136H343.167V397.206C343.527 397.221 344.007 397.251 344.547 397.251C345.657 397.251 346.272 396.876 346.272 396.171C346.272 395.466 345.687 395.136 344.607 395.136ZM344.502 392.331C343.962 392.331 343.467 392.361 343.167 392.376V394.386H344.682C345.477 394.386 346.047 393.996 346.047 393.336C346.047 392.601 345.372 392.331 344.502 392.331ZM348.929 394.791C348.929 392.766 350.369 391.266 352.529 391.266C354.689 391.266 356.129 392.766 356.129 394.791C356.129 396.816 354.689 398.316 352.529 398.316C350.369 398.316 348.929 396.816 348.929 394.791ZM350.204 394.791C350.204 396.201 351.179 397.191 352.529 397.191C353.879 397.191 354.854 396.231 354.854 394.791C354.854 393.381 353.879 392.391 352.529 392.391C351.209 392.391 350.204 393.366 350.204 394.791Z" fill="#0E141A"/>
<path d="M88.6455 364.319C88.6455 361.274 90.8805 358.919 94.0005 358.919C97.0455 358.919 99.3555 361.124 99.3555 364.319C99.3555 367.439 97.0455 369.719 94.0005 369.719C90.9555 369.719 88.6455 367.514 88.6455 364.319ZM89.9955 364.319C89.9955 366.704 91.7505 368.519 94.0005 368.519C96.4005 368.519 98.0055 366.689 98.0055 364.319C98.0055 361.874 96.2505 360.119 94.0005 360.119C91.7205 360.119 89.9955 361.874 89.9955 364.319ZM100.337 364.019V362.819H106.487V364.019H104.012V369.569H102.812V364.019H100.337ZM107.799 369.569V362.819C108.384 362.819 109.269 362.759 110.244 362.759C112.134 362.759 113.154 363.284 113.154 364.499C113.154 365.294 112.614 365.924 111.804 366.044V366.074C112.884 366.269 113.379 366.824 113.379 367.664C113.379 368.939 112.374 369.629 110.274 369.629C109.434 369.629 108.414 369.569 107.799 369.569ZM110.439 366.539H108.999V368.609C109.359 368.624 109.839 368.654 110.379 368.654C111.489 368.654 112.104 368.279 112.104 367.574C112.104 366.869 111.519 366.539 110.439 366.539ZM110.334 363.734C109.794 363.734 109.299 363.764 108.999 363.779V365.789H110.514C111.309 365.789 111.879 365.399 111.879 364.739C111.879 364.004 111.204 363.734 110.334 363.734ZM120.536 367.889L120.911 368.834C120.251 369.434 119.276 369.719 118.376 369.719C116.186 369.719 114.761 368.324 114.761 366.194C114.761 364.229 116.021 362.669 118.241 362.669C119.981 362.669 121.376 363.899 121.376 365.759C121.376 366.089 121.346 366.359 121.301 366.569H116.111C116.216 367.844 117.146 368.594 118.466 368.594C119.336 368.594 120.101 368.294 120.536 367.889ZM118.181 363.794C116.951 363.794 116.171 364.559 116.036 365.594H120.131C120.071 364.484 119.351 363.794 118.181 363.794ZM122.017 364.019V362.819H128.167V364.019H125.692V369.569H124.492V364.019H122.017ZM134.449 367.724L135.019 368.594C134.449 369.329 133.459 369.719 132.424 369.719C130.279 369.719 128.809 368.324 128.809 366.194C128.809 364.229 130.249 362.669 132.229 362.669C133.309 362.669 134.254 362.924 134.884 363.554L134.329 364.499C133.759 363.974 133.099 363.794 132.394 363.794C131.179 363.794 130.084 364.769 130.084 366.194C130.084 367.679 131.179 368.594 132.514 368.594C133.324 368.594 133.999 368.234 134.449 367.724ZM135.64 364.019V362.819H141.79V364.019H139.315V369.569H138.115V364.019H135.64ZM143.101 369.569V362.819C143.686 362.819 144.571 362.759 145.546 362.759C147.436 362.759 148.456 363.284 148.456 364.499C148.456 365.294 147.916 365.924 147.106 366.044V366.074C148.186 366.269 148.681 366.824 148.681 367.664C148.681 368.939 147.676 369.629 145.576 369.629C144.736 369.629 143.716 369.569 143.101 369.569ZM145.741 366.539H144.301V368.609C144.661 368.624 145.141 368.654 145.681 368.654C146.791 368.654 147.406 368.279 147.406 367.574C147.406 366.869 146.821 366.539 145.741 366.539ZM145.636 363.734C145.096 363.734 144.601 363.764 144.301 363.779V365.789H145.816C146.611 365.789 147.181 365.399 147.181 364.739C147.181 364.004 146.506 363.734 145.636 363.734ZM155.839 367.889L156.214 368.834C155.554 369.434 154.579 369.719 153.679 369.719C151.489 369.719 150.064 368.324 150.064 366.194C150.064 364.229 151.324 362.669 153.544 362.669C155.284 362.669 156.679 363.899 156.679 365.759C156.679 366.089 156.649 366.359 156.604 366.569H151.414C151.519 367.844 152.449 368.594 153.769 368.594C154.639 368.594 155.404 368.294 155.839 367.889ZM153.484 363.794C152.254 363.794 151.474 364.559 151.339 365.594H155.434C155.374 364.484 154.654 363.794 153.484 363.794ZM163.257 369.569V366.719H159.507V369.569H158.307V362.819H159.507V365.594H163.257V362.819H164.457V369.569H163.257ZM171.577 369.569V366.719H167.827V369.569H166.627V362.819H167.827V365.594H171.577V362.819H172.777V369.569H171.577ZM174.497 366.194C174.497 364.169 175.937 362.669 178.097 362.669C180.257 362.669 181.697 364.169 181.697 366.194C181.697 368.219 180.257 369.719 178.097 369.719C175.937 369.719 174.497 368.219 174.497 366.194ZM175.772 366.194C175.772 367.604 176.747 368.594 178.097 368.594C179.447 368.594 180.422 367.634 180.422 366.194C180.422 364.784 179.447 363.794 178.097 363.794C176.777 363.794 175.772 364.769 175.772 366.194ZM188.619 367.724L189.189 368.594C188.619 369.329 187.629 369.719 186.594 369.719C184.449 369.719 182.979 368.324 182.979 366.194C182.979 364.229 184.419 362.669 186.399 362.669C187.479 362.669 188.424 362.924 189.054 363.554L188.499 364.499C187.929 363.974 187.269 363.794 186.564 363.794C185.349 363.794 184.254 364.769 184.254 366.194C184.254 367.679 185.349 368.594 186.684 368.594C187.494 368.594 188.169 368.234 188.619 367.724ZM189.81 364.019V362.819H195.96V364.019H193.485V369.569H192.285V364.019H189.81ZM197.271 369.569V362.819H198.471V364.844H199.701C201.771 364.844 202.371 365.969 202.371 367.169C202.371 368.354 201.681 369.569 199.551 369.569H197.271ZM199.476 365.969H198.471V368.444H199.461C200.646 368.444 201.096 368.009 201.096 367.214C201.096 366.404 200.631 365.969 199.476 365.969Z" fill="#0E141A"/>
<path d="M367.501 242.534V237.779H361.726V242.534H360.451V232.034H361.726V236.579H367.501V232.034H368.776V242.534H367.501ZM371.786 237.209L371.471 236.249C372.071 235.874 372.881 235.634 373.721 235.634C375.641 235.634 376.316 236.639 376.316 238.394V242.534H375.176V241.664C374.771 242.174 374.126 242.639 373.016 242.639C371.786 242.639 370.946 241.859 370.946 240.554C370.946 239.174 372.041 238.409 373.496 238.409C374.021 238.409 374.726 238.514 375.176 238.844C375.176 237.584 374.981 236.714 373.646 236.714C372.821 236.714 372.326 236.924 371.786 237.209ZM373.436 241.559C374.321 241.559 374.831 241.094 375.176 240.689V239.834C374.756 239.534 374.246 239.384 373.661 239.384C372.941 239.384 372.221 239.714 372.221 240.494C372.221 241.139 372.656 241.559 373.436 241.559ZM377.396 244.184V241.409H378.236C378.686 240.839 379.151 239.414 379.271 237.569L379.376 235.784H383.981V241.409H385.106V244.184H383.981V242.534H378.521V244.184H377.396ZM380.426 238.034C380.276 239.759 379.826 240.989 379.511 241.409H382.781V236.909H380.501L380.426 238.034ZM391.737 240.854L392.112 241.799C391.452 242.399 390.477 242.684 389.577 242.684C387.387 242.684 385.962 241.289 385.962 239.159C385.962 237.194 387.222 235.634 389.442 235.634C391.182 235.634 392.577 236.864 392.577 238.724C392.577 239.054 392.547 239.324 392.502 239.534H387.312C387.417 240.809 388.347 241.559 389.667 241.559C390.537 241.559 391.302 241.259 391.737 240.854ZM389.382 236.759C388.152 236.759 387.372 237.524 387.237 238.559H391.332C391.272 237.449 390.552 236.759 389.382 236.759ZM402.582 235.784L400.137 239.039L402.762 242.534H401.277L398.772 239.039L401.097 235.784H402.582ZM397.272 242.534V235.784H398.472V242.534H397.272ZM395.607 239.039L393.162 235.784H394.662L396.972 239.039L394.497 242.534H393.027L395.607 239.039ZM409.013 242.534V239.684H405.263V242.534H404.063V235.784H405.263V238.559H409.013V235.784H410.213V242.534H409.013ZM411.933 239.159C411.933 237.134 413.373 235.634 415.533 235.634C417.693 235.634 419.133 237.134 419.133 239.159C419.133 241.184 417.693 242.684 415.533 242.684C413.373 242.684 411.933 241.184 411.933 239.159ZM413.208 239.159C413.208 240.569 414.183 241.559 415.533 241.559C416.883 241.559 417.858 240.599 417.858 239.159C417.858 237.749 416.883 236.759 415.533 236.759C414.213 236.759 413.208 237.734 413.208 239.159ZM426.055 240.689L426.625 241.559C426.055 242.294 425.065 242.684 424.03 242.684C421.885 242.684 420.415 241.289 420.415 239.159C420.415 237.194 421.855 235.634 423.835 235.634C424.915 235.634 425.86 235.889 426.49 236.519L425.935 237.464C425.365 236.939 424.705 236.759 424 236.759C422.785 236.759 421.69 237.734 421.69 239.159C421.69 240.644 422.785 241.559 424.12 241.559C424.93 241.559 425.605 241.199 426.055 240.689ZM427.246 236.984V235.784H433.396V236.984H430.921V242.534H429.721V236.984H427.246ZM434.707 242.534V235.784H435.907V237.809H437.137C439.207 237.809 439.807 238.934 439.807 240.134C439.807 241.319 439.117 242.534 436.987 242.534H434.707ZM436.912 238.934H435.907V241.409H436.897C438.082 241.409 438.532 240.974 438.532 240.179C438.532 239.369 438.067 238.934 436.912 238.934Z" fill="#0E141A"/>
<path d="M221.245 123.024V112.524H227.185V113.724H222.52V116.739C223.045 116.679 223.72 116.649 224.125 116.649C226.48 116.649 227.8 117.849 227.8 119.739C227.8 121.914 226.285 123.084 223.765 123.084C222.7 123.084 221.86 123.024 221.245 123.024ZM224.05 117.849C223.645 117.849 223.075 117.879 222.52 117.939V121.824C222.985 121.854 223.45 121.884 223.96 121.884C225.685 121.884 226.525 121.104 226.525 119.829C226.525 118.659 225.73 117.849 224.05 117.849ZM235.259 121.344L235.634 122.289C234.974 122.889 233.999 123.174 233.099 123.174C230.909 123.174 229.484 121.779 229.484 119.649C229.484 117.684 230.744 116.124 232.964 116.124C234.704 116.124 236.099 117.354 236.099 119.214C236.099 119.544 236.069 119.814 236.024 120.024H230.834C230.939 121.299 231.869 122.049 233.189 122.049C234.059 122.049 234.824 121.749 235.259 121.344ZM232.904 117.249C231.674 117.249 230.894 118.014 230.759 119.049H234.854C234.794 117.939 234.074 117.249 232.904 117.249ZM239.962 123.174C238.972 123.174 237.622 122.799 237.172 122.259L237.787 121.359C238.357 121.824 239.197 122.094 239.782 122.094C240.802 122.094 241.552 121.659 241.552 120.984C241.552 120.429 241.057 120.114 240.232 120.114H239.092V119.139H240.157C240.832 119.139 241.327 118.719 241.327 118.179C241.327 117.564 240.757 117.204 239.887 117.204C238.957 117.204 238.312 117.594 237.862 117.954L237.397 117.024C237.952 116.454 239.002 116.124 240.067 116.124C241.717 116.124 242.602 116.829 242.602 117.939C242.602 118.599 242.272 119.229 241.417 119.529V119.559C242.362 119.664 242.827 120.369 242.827 121.149C242.827 122.409 241.627 123.174 239.962 123.174ZM244.206 119.649C244.206 117.624 245.646 116.124 247.806 116.124C249.966 116.124 251.406 117.624 251.406 119.649C251.406 121.674 249.966 123.174 247.806 123.174C245.646 123.174 244.206 121.674 244.206 119.649ZM245.481 119.649C245.481 121.059 246.456 122.049 247.806 122.049C249.156 122.049 250.131 121.089 250.131 119.649C250.131 118.239 249.156 117.249 247.806 117.249C246.486 117.249 245.481 118.224 245.481 119.649ZM258.012 123.024V117.399H254.337V123.024H253.137V116.274H259.212V123.024H258.012ZM261.744 117.699L261.429 116.739C262.029 116.364 262.839 116.124 263.679 116.124C265.599 116.124 266.274 117.129 266.274 118.884V123.024H265.134V122.154C264.729 122.664 264.084 123.129 262.974 123.129C261.744 123.129 260.904 122.349 260.904 121.044C260.904 119.664 261.999 118.899 263.454 118.899C263.979 118.899 264.684 119.004 265.134 119.334C265.134 118.074 264.939 117.204 263.604 117.204C262.779 117.204 262.284 117.414 261.744 117.699ZM263.394 122.049C264.279 122.049 264.789 121.584 265.134 121.179V120.324C264.714 120.024 264.204 119.874 263.619 119.874C262.899 119.874 262.179 120.204 262.179 120.984C262.179 121.629 262.614 122.049 263.394 122.049ZM273.474 121.179L274.044 122.049C273.474 122.784 272.484 123.174 271.449 123.174C269.304 123.174 267.834 121.779 267.834 119.649C267.834 117.684 269.274 116.124 271.254 116.124C272.334 116.124 273.279 116.379 273.909 117.009L273.354 117.954C272.784 117.429 272.124 117.249 271.419 117.249C270.204 117.249 269.109 118.224 269.109 119.649C269.109 121.134 270.204 122.049 271.539 122.049C272.349 122.049 273.024 121.689 273.474 121.179ZM280.558 123.024V120.174H276.808V123.024H275.608V116.274H276.808V119.049H280.558V116.274H281.758V123.024H280.558ZM283.478 119.649C283.478 117.624 284.918 116.124 287.078 116.124C289.238 116.124 290.678 117.624 290.678 119.649C290.678 121.674 289.238 123.174 287.078 123.174C284.918 123.174 283.478 121.674 283.478 119.649ZM284.753 119.649C284.753 121.059 285.728 122.049 287.078 122.049C288.428 122.049 289.403 121.089 289.403 119.649C289.403 118.239 288.428 117.249 287.078 117.249C285.758 117.249 284.753 118.224 284.753 119.649ZM297.6 121.179L298.17 122.049C297.6 122.784 296.61 123.174 295.575 123.174C293.43 123.174 291.96 121.779 291.96 119.649C291.96 117.684 293.4 116.124 295.38 116.124C296.46 116.124 297.405 116.379 298.035 117.009L297.48 117.954C296.91 117.429 296.25 117.249 295.545 117.249C294.33 117.249 293.235 118.224 293.235 119.649C293.235 121.134 294.33 122.049 295.665 122.049C296.475 122.049 297.15 121.689 297.6 121.179ZM298.791 117.474V116.274H304.941V117.474H302.466V123.024H301.266V117.474H298.791ZM306.253 123.024V116.274H307.453V118.299H308.683C310.753 118.299 311.353 119.424 311.353 120.624C311.353 121.809 310.663 123.024 308.533 123.024H306.253ZM308.458 119.424H307.453V121.899H308.443C309.628 121.899 310.078 121.464 310.078 120.669C310.078 119.859 309.613 119.424 308.458 119.424Z" fill="#0E141A"/>
</svg>
