<svg width="524" height="531" fill="none" xmlns="http://www.w3.org/2000/svg"><mask id="a" style="mask-type:luminance" maskUnits="userSpaceOnUse" x="12" y="8" width="508" height="518"><path d="M76.3 314.2c-1.5-2.6-25.1-72.9-32.8-106.5-4.3-19-7.7-38.1-9.1-57.5-1.1-14.5-1.2-29 1.7-43.3 1.7-8.4 4.3-16.5 9.4-23.6 7.9-10.9 18.8-14 31.6-11.9 16.2 2.7 29.9 10.9 43 20.3 16.6 11.9 31.2 26.2 45 41.3 21.1 23.2 39.2 48.7 55.3 75.5 9.8 16.4 19 33.1 28.4 49.7.4.7.7 1.4 1.1 2.4m-2.3 181.7c-3 .6-77.1 1.5-111.4-1.5-19.4-1.7-38.6-4.4-57.5-9-14.1-3.4-27.9-7.8-40.7-15-7.5-4.2-14.4-9.1-19.5-16.2-7.9-10.9-7.6-22.2-1.6-33.7 7.5-14.6 19.6-25.2 32.5-34.7 16.5-12.2 34.5-21.7 53.1-30.1 28.6-13 58.4-22.4 88.9-29.5 18.6-4.3 37.3-7.9 56-11.8.8-.2 1.5-.2 2.6-.3m171.9 58.6c-.3 3-22.4 73.8-36 105.5-7.6 17.9-16.1 35.4-26.4 51.9-7.6 12.3-16.1 24.2-26.8 34-6.3 5.8-13.1 10.9-21.4 13.6-12.8 4.1-23.5.3-32.5-8.9-11.6-11.7-17.8-26.4-22.9-41.7-6.5-19.4-9.9-39.5-12.2-59.8-3.5-31.2-3.2-62.4-.4-93.6 1.7-19 4.1-37.9 6.2-56.9.1-.8.3-1.5.5-2.6M358.5 115c2.8 1.2 63.3 44.1 89.3 66.8 14.7 12.8 28.7 26.2 41.2 41.1 9.4 11.1 18 22.7 24.1 36 3.6 7.8 6.3 15.8 6.3 24.6 0 13.4-7 22.4-18.5 28.2-14.7 7.4-30.6 8.8-46.7 8.9-20.5.2-40.6-2.8-60.6-6.9-30.7-6.3-60.4-16.2-89.2-28.4-26.1-11.1-42.8-19.2-52.2-23.4-.7-.3-1.4-.7-2.3-1.2M144.8 112.4c2-2.3 61.4-46.6 91-64.4 16.7-10 33.8-19.2 51.8-26.6 13.4-5.5 27.2-10.2 41.7-11.9 8.5-1 17-1.1 25.3 1.6 12.8 4.1 19.2 13.5 21.1 26.3 2.5 16.3-1 31.9-5.9 47.2-6.2 19.5-15.1 37.8-25.2 55.6-15.5 27.3-34 52.4-54.5 76.1-12.5 14.4-25.6 28.3-38.4 42.5-.5.6-1.1 1.1-1.9 1.8" fill="#fff"/></mask><g mask="url(#a)"><path d="M531.9 0H-4.4v536.3h536.3V0z" fill="#fff"/></g><path d="M76.3 314.2c-1.5-2.6-25.1-72.9-32.8-106.5-4.3-19-7.7-38.1-9.1-57.5-1.1-14.5-1.2-29 1.7-43.3 1.7-8.4 4.3-16.5 9.4-23.6 7.9-10.9 18.8-14 31.6-11.9 16.2 2.7 29.9 10.9 43 20.3 16.6 11.9 31.2 26.2 45 41.3 21.1 23.2 39.2 48.7 55.3 75.5 9.8 16.4 19 33.1 28.4 49.7.4.7.7 1.4 1.1 2.4m-2.3 181.7c-3 .6-77.1 1.5-111.4-1.5-19.4-1.7-38.6-4.4-57.5-9-14.1-3.4-27.9-7.8-40.7-15-7.5-4.2-14.4-9.1-19.5-16.2-7.9-10.9-7.6-22.2-1.6-33.7 7.5-14.6 19.6-25.2 32.5-34.7 16.5-12.2 34.5-21.7 53.1-30.1 28.6-13 58.4-22.4 88.9-29.5 18.6-4.3 37.3-7.9 56-11.8.8-.2 1.5-.2 2.6-.3m171.9 58.6c-.3 3-22.4 73.8-36 105.5-7.6 17.9-16.1 35.4-26.4 51.9-7.6 12.3-16.1 24.2-26.8 34-6.3 5.8-13.1 10.9-21.4 13.6-12.8 4.1-23.5.3-32.5-8.9-11.6-11.7-17.8-26.4-22.9-41.7-6.5-19.4-9.9-39.5-12.2-59.8-3.5-31.2-3.2-62.4-.4-93.6 1.7-19 4.1-37.9 6.2-56.9.1-.8.3-1.5.5-2.6M358.5 115c2.8 1.2 63.3 44.1 89.3 66.8 14.7 12.8 28.7 26.2 41.2 41.1 9.4 11.1 18 22.7 24.1 36 3.6 7.8 6.3 15.8 6.3 24.6 0 13.4-7 22.4-18.5 28.2-14.7 7.4-30.6 8.8-46.7 8.9-20.5.2-40.6-2.8-60.6-6.9-30.7-6.3-60.4-16.2-89.2-28.4-26.1-11.1-42.8-19.2-52.2-23.4-.7-.3-1.4-.7-2.3-1.2M144.8 112.4c2-2.3 61.4-46.6 91-64.4 16.7-10 33.8-19.2 51.8-26.6 13.4-5.5 27.2-10.2 41.7-11.9 8.5-1 17-1.1 25.3 1.6 12.8 4.1 19.2 13.5 21.1 26.3 2.5 16.3-1 31.9-5.9 47.2-6.2 19.5-15.1 37.8-25.2 55.6-15.5 27.3-34 52.4-54.5 76.1-12.5 14.4-25.6 28.3-38.4 42.5-.5.6-1.1 1.1-1.9 1.8" stroke="#D2233C" stroke-width="6" stroke-miterlimit="10"/><path d="M74.52 191.608c-1.605 0-2.88-.81-3.435-1.65l.705-.855c.674.795 1.8 1.305 2.654 1.305 1.365 0 2.385-.705 2.385-2.01 0-1.035-.75-1.71-2.054-1.71h-1.216v-1.2h1.126c.885 0 1.74-.72 1.74-1.77 0-1.14-.825-1.71-1.906-1.71-1.035 0-1.755.42-2.385 1.17l-.75-.84c.706-.915 1.906-1.53 3.27-1.53 1.816 0 3.046 1.005 3.046 2.79 0 .885-.496 1.875-1.516 2.4v.045c1.276.24 1.92 1.275 1.92 2.475 0 1.935-1.665 3.09-3.585 3.09zm6.076-5.475l-.315-.96c.6-.375 1.41-.615 2.25-.615 1.92 0 2.595 1.005 2.595 2.76v4.14h-1.14v-.87c-.405.51-1.05.975-2.16.975-1.23 0-2.07-.78-2.07-2.085 0-1.38 1.095-2.145 2.55-2.145.525 0 1.23.105 1.68.435 0-1.26-.195-2.13-1.53-2.13-.825 0-1.32.21-1.86.495zm1.65 4.35c.885 0 1.395-.465 1.74-.87v-.855c-.42-.3-.93-.45-1.515-.45-.72 0-1.44.33-1.44 1.11 0 .645.435 1.065 1.215 1.065zm10.11-9.675l.645.945c-.825 1.11-1.95.675-3.435 1.35-1.26.57-1.62 1.995-1.71 3.255h.03c.435-.945 1.53-1.575 2.67-1.575 1.935 0 3.135 1.335 3.135 3.36 0 1.89-1.41 3.465-3.465 3.465-2.19 0-3.57-1.605-3.57-4.2 0-1.995.36-4.545 2.505-5.445 1.575-.675 2.505-.255 3.195-1.155zm-4.425 6.825c0 1.74.93 2.85 2.265 2.85 1.32 0 2.22-1.02 2.22-2.28 0-1.32-.765-2.295-2.16-2.295-1.275 0-2.115.855-2.325 1.725zm7.031.45c0-2.025 1.44-3.525 3.6-3.525s3.6 1.5 3.6 3.525-1.44 3.525-3.6 3.525-3.6-1.5-3.6-3.525zm1.275 0c0 1.41.975 2.4 2.325 2.4s2.325-.96 2.325-2.4c0-1.41-.975-2.4-2.325-2.4-1.32 0-2.325.975-2.325 2.4zm6.538-2.175v-1.2h6.15v1.2h-2.475v5.55h-1.2v-5.55h-2.475zm7.821.225l-.315-.96c.6-.375 1.41-.615 2.25-.615 1.92 0 2.595 1.005 2.595 2.76v4.14h-1.14v-.87c-.405.51-1.05.975-2.16.975-1.23 0-2.07-.78-2.07-2.085 0-1.38 1.095-2.145 2.55-2.145.525 0 1.23.105 1.68.435 0-1.26-.195-2.13-1.53-2.13-.825 0-1.32.21-1.86.495zm1.65 4.35c.885 0 1.395-.465 1.74-.87v-.855c-.42-.3-.93-.45-1.515-.45-.72 0-1.44.33-1.44 1.11 0 .645.435 1.065 1.215 1.065zm7.809-2.4c0-2.025 1.44-3.525 3.6-3.525s3.6 1.5 3.6 3.525-1.44 3.525-3.6 3.525-3.6-1.5-3.6-3.525zm1.275 0c0 1.41.975 2.4 2.325 2.4s2.325-.96 2.325-2.4c0-1.41-.975-2.4-2.325-2.4-1.32 0-2.325.975-2.325 2.4zm15.646 3.375v-5.55h-2.37l-.075 1.14c-.3 3.84-1.32 4.5-2.715 4.5l-.09-1.17c.51.045 1.47-.45 1.635-3.57l.12-2.1h4.695v6.75h-1.2zm3.363 0v-6.75h1.275v2.7h1.47c.27-1.665 1.56-2.85 3.405-2.85 2.115 0 3.525 1.5 3.525 3.525s-1.44 3.525-3.525 3.525c-1.905 0-3.21-1.245-3.42-3h-1.455v2.85h-1.275zm4.05-3.375c0 1.425.9 2.325 2.145 2.325s2.13-.915 2.13-2.325c0-1.38-.84-2.325-2.13-2.325-1.26 0-2.145.93-2.145 2.325zm6.153 5.025v-2.775h.84c.45-.57.915-1.995 1.035-3.84l.105-1.785h4.605v5.625h1.125v2.775h-1.125v-1.65h-5.46v1.65h-1.125zm3.03-6.15c-.15 1.725-.6 2.955-.915 3.375h3.27v-4.5h-2.28l-.075 1.125zm8.941-2.25h2.1v6.75h-1.2v-2.25h-1.305l-1.65 2.25h-1.455l1.95-2.55c-.69-.165-1.455-.84-1.455-1.95 0-1.155.765-2.25 3.015-2.25zm-1.74 2.28c0 .69.66 1.095 1.26 1.095h1.38v-2.25h-1.095c-1.125 0-1.545.525-1.545 1.155zm12.021-2.28l-2.415 3.255 2.565 3.495h-1.47l-1.98-2.73-2.01 2.73h-1.395l2.55-3.435-2.4-3.315h1.47l1.83 2.55 1.86-2.55h1.395zm118.711 213.458v-9.3h-3.81l-.18 1.98c-.615 6.675-2.025 7.53-3.675 7.32l.015-1.275c.75.075 2.01-.3 2.49-7.125l.15-2.1h6.285v10.5h-1.275zm5.124 0h-1.2v-6.75h1.2v5.025l3.9-5.025h1.2v6.75h-1.2v-5.025l-3.9 5.025zm6.352 1.65v-2.775h.84c.45-.57.915-1.995 1.035-3.84l.105-1.785h4.605v5.625h1.125v2.775h-1.125v-1.65h-5.46v1.65h-1.125zm3.03-6.15c-.15 1.725-.6 2.955-.915 3.375h3.27v-4.5h-2.28l-.075 1.125zm11.311 2.82l.375.945c-.66.6-1.635.885-2.535.885-2.19 0-3.615-1.395-3.615-3.525 0-1.965 1.26-3.525 3.48-3.525 1.74 0 3.135 1.23 3.135 3.09 0 .33-.03.6-.075.81h-5.19c.105 1.275 1.035 2.025 2.355 2.025.87 0 1.635-.3 2.07-.705zm-2.355-4.095c-1.23 0-2.01.765-2.145 1.8h4.095c-.06-1.11-.78-1.8-1.95-1.8zm4.822 8.775v-9.75h1.2v.795c.465-.54 1.365-.945 2.295-.945 1.92 0 3.12 1.425 3.12 3.42 0 2.055-1.395 3.63-3.51 3.63-.72 0-1.425-.15-1.905-.465v3.315h-1.2zm3.15-8.775c-.795 0-1.53.405-1.95.93v3.345c.6.405 1.155.525 1.8.525 1.44 0 2.34-1.035 2.34-2.46 0-1.365-.795-2.34-2.19-2.34zm10.375 3.93l.57.87c-.57.735-1.56 1.125-2.595 1.125-2.145 0-3.615-1.395-3.615-3.525 0-1.965 1.44-3.525 3.42-3.525 1.08 0 2.025.255 2.655.885l-.555.945c-.57-.525-1.23-.705-1.935-.705-1.215 0-2.31.975-2.31 2.4 0 1.485 1.095 2.4 2.43 2.4.81 0 1.485-.36 1.935-.87zm1.192-3.705v-1.2h6.15v1.2h-2.475v5.55h-1.2v-5.55h-2.475zm7.461 5.55v-6.75c.585 0 1.47-.06 2.445-.06 1.89 0 2.91.525 2.91 1.74 0 .795-.54 1.425-1.35 1.545v.03c1.08.195 1.575.75 1.575 1.59 0 1.275-1.005 1.965-3.105 1.965-.84 0-1.86-.06-2.475-.06zm2.64-3.03h-1.44v2.07c.36.015.84.045 1.38.045 1.11 0 1.725-.375 1.725-1.08 0-.705-.585-1.035-1.665-1.035zm-.105-2.805c-.54 0-1.035.03-1.335.045v2.01h1.515c.795 0 1.365-.39 1.365-1.05 0-.735-.675-1.005-1.545-1.005zm4.427 2.46c0-2.025 1.44-3.525 3.6-3.525s3.6 1.5 3.6 3.525-1.44 3.525-3.6 3.525-3.6-1.5-3.6-3.525zm1.275 0c0 1.41.975 2.4 2.325 2.4s2.325-.96 2.325-2.4c0-1.41-.975-2.4-2.325-2.4-1.32 0-2.325.975-2.325 2.4zM88.645 364.319c0-3.045 2.236-5.4 5.356-5.4 3.044 0 5.355 2.205 5.355 5.4 0 3.12-2.31 5.4-5.355 5.4-3.046 0-5.356-2.205-5.356-5.4zm1.35 0c0 2.385 1.755 4.2 4.005 4.2 2.4 0 4.005-1.83 4.005-4.2 0-2.445-1.754-4.2-4.004-4.2-2.28 0-4.005 1.755-4.005 4.2zm10.342-.3v-1.2h6.15v1.2h-2.475v5.55h-1.2v-5.55h-2.475zm7.462 5.55v-6.75c.585 0 1.47-.06 2.445-.06 1.89 0 2.91.525 2.91 1.74 0 .795-.54 1.425-1.35 1.545v.03c1.08.195 1.575.75 1.575 1.59 0 1.275-1.005 1.965-3.105 1.965-.84 0-1.86-.06-2.475-.06zm2.64-3.03h-1.44v2.07c.36.015.84.045 1.38.045 1.11 0 1.725-.375 1.725-1.08 0-.705-.585-1.035-1.665-1.035zm-.105-2.805c-.54 0-1.035.03-1.335.045v2.01h1.515c.795 0 1.365-.39 1.365-1.05 0-.735-.675-1.005-1.545-1.005zm10.202 4.155l.375.945c-.66.6-1.635.885-2.535.885-2.19 0-3.615-1.395-3.615-3.525 0-1.965 1.26-3.525 3.48-3.525 1.74 0 3.135 1.23 3.135 3.09 0 .33-.03.6-.075.81h-5.19c.105 1.275 1.035 2.025 2.355 2.025.87 0 1.635-.3 2.07-.705zm-2.355-4.095c-1.23 0-2.01.765-2.145 1.8h4.095c-.06-1.11-.78-1.8-1.95-1.8zm3.836.225v-1.2h6.15v1.2h-2.475v5.55h-1.2v-5.55h-2.475zm12.432 3.705l.57.87c-.57.735-1.56 1.125-2.595 1.125-2.145 0-3.615-1.395-3.615-3.525 0-1.965 1.44-3.525 3.42-3.525 1.08 0 2.025.255 2.655.885l-.555.945c-.57-.525-1.23-.705-1.935-.705-1.215 0-2.31.975-2.31 2.4 0 1.485 1.095 2.4 2.43 2.4.81 0 1.485-.36 1.935-.87zm1.191-3.705v-1.2h6.15v1.2h-2.475v5.55h-1.2v-5.55h-2.475zm7.461 5.55v-6.75c.585 0 1.47-.06 2.445-.06 1.89 0 2.91.525 2.91 1.74 0 .795-.54 1.425-1.35 1.545v.03c1.08.195 1.575.75 1.575 1.59 0 1.275-1.005 1.965-3.105 1.965-.84 0-1.86-.06-2.475-.06zm2.64-3.03h-1.44v2.07c.36.015.84.045 1.38.045 1.11 0 1.725-.375 1.725-1.08 0-.705-.585-1.035-1.665-1.035zm-.105-2.805c-.54 0-1.035.03-1.335.045v2.01h1.515c.795 0 1.365-.39 1.365-1.05 0-.735-.675-1.005-1.545-1.005zm10.203 4.155l.375.945c-.66.6-1.635.885-2.535.885-2.19 0-3.615-1.395-3.615-3.525 0-1.965 1.26-3.525 3.48-3.525 1.74 0 3.135 1.23 3.135 3.09 0 .33-.03.6-.075.81h-5.19c.105 1.275 1.035 2.025 2.355 2.025.87 0 1.635-.3 2.07-.705zm-2.355-4.095c-1.23 0-2.01.765-2.145 1.8h4.095c-.06-1.11-.78-1.8-1.95-1.8zm9.773 5.775v-2.85h-3.75v2.85h-1.2v-6.75h1.2v2.775h3.75v-2.775h1.2v6.75h-1.2zm8.32 0v-2.85h-3.75v2.85h-1.2v-6.75h1.2v2.775h3.75v-2.775h1.2v6.75h-1.2zm2.92-3.375c0-2.025 1.44-3.525 3.6-3.525s3.6 1.5 3.6 3.525-1.44 3.525-3.6 3.525-3.6-1.5-3.6-3.525zm1.275 0c0 1.41.975 2.4 2.325 2.4s2.325-.96 2.325-2.4c0-1.41-.975-2.4-2.325-2.4-1.32 0-2.325.975-2.325 2.4zm12.847 1.53l.57.87c-.57.735-1.56 1.125-2.595 1.125-2.145 0-3.615-1.395-3.615-3.525 0-1.965 1.44-3.525 3.42-3.525 1.08 0 2.025.255 2.655.885l-.555.945c-.57-.525-1.23-.705-1.935-.705-1.215 0-2.31.975-2.31 2.4 0 1.485 1.095 2.4 2.43 2.4.81 0 1.485-.36 1.935-.87zm1.191-3.705v-1.2h6.15v1.2h-2.475v5.55h-1.2v-5.55h-2.475zm7.461 5.55v-6.75h1.2v2.025h1.23c2.07 0 2.67 1.125 2.67 2.325 0 1.185-.69 2.4-2.82 2.4h-2.28zm2.205-3.6h-1.005v2.475h.99c1.185 0 1.635-.435 1.635-1.23 0-.81-.465-1.245-1.62-1.245zm168.025-123.435v-4.755h-5.775v4.755h-1.275v-10.5h1.275v4.545h5.775v-4.545h1.275v10.5h-1.275zm4.285-5.325l-.315-.96c.6-.375 1.41-.615 2.25-.615 1.92 0 2.595 1.005 2.595 2.76v4.14h-1.14v-.87c-.405.51-1.05.975-2.16.975-1.23 0-2.07-.78-2.07-2.085 0-1.38 1.095-2.145 2.55-2.145.525 0 1.23.105 1.68.435 0-1.26-.195-2.13-1.53-2.13-.825 0-1.32.21-1.86.495zm1.65 4.35c.885 0 1.395-.465 1.74-.87v-.855c-.42-.3-.93-.45-1.515-.45-.72 0-1.44.33-1.44 1.11 0 .645.435 1.065 1.215 1.065zm3.96 2.625v-2.775h.84c.45-.57.915-1.995 1.035-3.84l.105-1.785h4.605v5.625h1.125v2.775h-1.125v-1.65h-5.46v1.65h-1.125zm3.03-6.15c-.15 1.725-.6 2.955-.915 3.375h3.27v-4.5h-2.28l-.075 1.125zm11.311 2.82l.375.945c-.66.6-1.635.885-2.535.885-2.19 0-3.615-1.395-3.615-3.525 0-1.965 1.26-3.525 3.48-3.525 1.74 0 3.135 1.23 3.135 3.09 0 .33-.03.6-.075.81h-5.19c.105 1.275 1.035 2.025 2.355 2.025.87 0 1.635-.3 2.07-.705zm-2.355-4.095c-1.23 0-2.01.765-2.145 1.8h4.095c-.06-1.11-.78-1.8-1.95-1.8zm13.2-.975l-2.445 3.255 2.625 3.495h-1.485l-2.505-3.495 2.325-3.255h1.485zm-5.31 6.75v-6.75h1.2v6.75h-1.2zm-1.665-3.495l-2.445-3.255h1.5l2.31 3.255-2.475 3.495h-1.47l2.58-3.495zm13.406 3.495v-2.85h-3.75v2.85h-1.2v-6.75h1.2v2.775h3.75v-2.775h1.2v6.75h-1.2zm2.92-3.375c0-2.025 1.44-3.525 3.6-3.525s3.6 1.5 3.6 3.525-1.44 3.525-3.6 3.525-3.6-1.5-3.6-3.525zm1.275 0c0 1.41.975 2.4 2.325 2.4s2.325-.96 2.325-2.4c0-1.41-.975-2.4-2.325-2.4-1.32 0-2.325.975-2.325 2.4zm12.847 1.53l.57.87c-.57.735-1.56 1.125-2.595 1.125-2.145 0-3.615-1.395-3.615-3.525 0-1.965 1.44-3.525 3.42-3.525 1.08 0 2.025.255 2.655.885l-.555.945c-.57-.525-1.23-.705-1.935-.705-1.215 0-2.31.975-2.31 2.4 0 1.485 1.095 2.4 2.43 2.4.81 0 1.485-.36 1.935-.87zm1.191-3.705v-1.2h6.15v1.2h-2.475v5.55h-1.2v-5.55h-2.475zm7.461 5.55v-6.75h1.2v2.025h1.23c2.07 0 2.67 1.125 2.67 2.325 0 1.185-.69 2.4-2.82 2.4h-2.28zm2.205-3.6h-1.005v2.475h.99c1.185 0 1.635-.435 1.635-1.23 0-.81-.465-1.245-1.62-1.245zm-215.667-115.91v-10.5h5.94v1.2h-4.665v3.015c.525-.06 1.2-.09 1.605-.09 2.355 0 3.675 1.2 3.675 3.09 0 2.175-1.515 3.345-4.035 3.345-1.065 0-1.905-.06-2.52-.06zm2.805-5.175c-.405 0-.975.03-1.53.09v3.885c.465.03.93.06 1.44.06 1.725 0 2.565-.78 2.565-2.055 0-1.17-.795-1.98-2.475-1.98zm11.209 3.495l.375.945c-.66.6-1.635.885-2.535.885-2.19 0-3.615-1.395-3.615-3.525 0-1.965 1.26-3.525 3.48-3.525 1.74 0 3.135 1.23 3.135 3.09 0 .33-.03.6-.075.81h-5.19c.105 1.275 1.035 2.025 2.355 2.025.87 0 1.635-.3 2.07-.705zm-2.355-4.095c-1.23 0-2.01.765-2.145 1.8h4.095c-.06-1.11-.78-1.8-1.95-1.8zm7.058 5.925c-.99 0-2.34-.375-2.79-.915l.615-.9c.57.465 1.41.735 1.995.735 1.02 0 1.77-.435 1.77-1.11 0-.555-.495-.87-1.32-.87h-1.14v-.975h1.065c.675 0 1.17-.42 1.17-.96 0-.615-.57-.975-1.44-.975-.93 0-1.575.39-2.025.75l-.465-.93c.555-.57 1.605-.9 2.67-.9 1.65 0 2.535.705 2.535 1.815 0 .66-.33 1.29-1.185 1.59v.03c.945.105 1.41.81 1.41 1.59 0 1.26-1.2 2.025-2.865 2.025zm4.244-3.525c0-2.025 1.44-3.525 3.6-3.525s3.6 1.5 3.6 3.525-1.44 3.525-3.6 3.525-3.6-1.5-3.6-3.525zm1.275 0c0 1.41.975 2.4 2.325 2.4s2.325-.96 2.325-2.4c0-1.41-.975-2.4-2.325-2.4-1.32 0-2.325.975-2.325 2.4zm12.531 3.375v-5.625h-3.675v5.625h-1.2v-6.75h6.075v6.75h-1.2zm3.732-5.325l-.315-.96c.6-.375 1.41-.615 2.25-.615 1.92 0 2.595 1.005 2.595 2.76v4.14h-1.14v-.87c-.405.51-1.05.975-2.16.975-1.23 0-2.07-.78-2.07-2.085 0-1.38 1.095-2.145 2.55-2.145.525 0 1.23.105 1.68.435 0-1.26-.195-2.13-1.53-2.13-.825 0-1.32.21-1.86.495zm1.65 4.35c.885 0 1.395-.465 1.74-.87v-.855c-.42-.3-.93-.45-1.515-.45-.72 0-1.44.33-1.44 1.11 0 .645.435 1.065 1.215 1.065zm10.08-.87l.57.87c-.57.735-1.56 1.125-2.595 1.125-2.145 0-3.615-1.395-3.615-3.525 0-1.965 1.44-3.525 3.42-3.525 1.08 0 2.025.255 2.655.885l-.555.945c-.57-.525-1.23-.705-1.935-.705-1.215 0-2.31.975-2.31 2.4 0 1.485 1.095 2.4 2.43 2.4.81 0 1.485-.36 1.935-.87zm7.084 1.845v-2.85h-3.75v2.85h-1.2v-6.75h1.2v2.775h3.75v-2.775h1.2v6.75h-1.2zm2.92-3.375c0-2.025 1.44-3.525 3.6-3.525s3.6 1.5 3.6 3.525-1.44 3.525-3.6 3.525-3.6-1.5-3.6-3.525zm1.275 0c0 1.41.975 2.4 2.325 2.4s2.325-.96 2.325-2.4c0-1.41-.975-2.4-2.325-2.4-1.32 0-2.325.975-2.325 2.4zm12.847 1.53l.57.87c-.57.735-1.56 1.125-2.595 1.125-2.145 0-3.615-1.395-3.615-3.525 0-1.965 1.44-3.525 3.42-3.525 1.08 0 2.025.255 2.655.885l-.555.945c-.57-.525-1.23-.705-1.935-.705-1.215 0-2.31.975-2.31 2.4 0 1.485 1.095 2.4 2.43 2.4.81 0 1.485-.36 1.935-.87zm1.191-3.705v-1.2h6.15v1.2h-2.475v5.55h-1.2v-5.55h-2.475zm7.462 5.55v-6.75h1.2v2.025h1.23c2.07 0 2.67 1.125 2.67 2.325 0 1.185-.69 2.4-2.82 2.4h-2.28zm2.205-3.6h-1.005v2.475h.99c1.185 0 1.635-.435 1.635-1.23 0-.81-.465-1.245-1.62-1.245z" fill="#0E141A"/></svg>